# xmcd CD database file
#
# Track frame offsets:
#	150
#	24581
#	56344
#	71532
#	115297
#	145289
#	188479
#
# Disc length: 2986 seconds
#
# Revision: 0
# Processed by: cddbd v1.5.2PL0 Copyright (c) Steve Scherf et al.
# Submitted via: CDex 1.51
#
DISCID=5b0ba807
DTITLE=John Coxon and Wadada Leo Smith - Brooklyn Duos
DYEAR=2007
DGENRE=Jazz
TTITLE0=Gagaku: Rain
TTITLE1=Sacrifice: Dreams and Lovers
TTITLE2=Colours and Waves
TTITLE3=Urban Air Voices
TTITLE4=Blood Moon
TTITLE5=November Flowers
TTITLE6=Seven Gates
EXTD=YEAR: 2007
EXTT0=
EXTT1=
EXTT2=
EXTT3=
EXTT4=
EXTT5=
EXTT6=
PLAYORDER=
